<?xml version="1.0" standalone="no"?>
<!DOCTYPE svg PUBLIC "-//W3C//DTD SVG 20010904//EN"
 "http://www.w3.org/TR/2001/REC-SVG-20010904/DTD/svg10.dtd">
<svg version="1.0" xmlns="http://www.w3.org/2000/svg"
 width="512.000000pt" height="512.000000pt" viewBox="0 0 512.000000 512.000000"
 preserveAspectRatio="xMidYMid meet">

<g transform="translate(0.000000,512.000000) scale(0.100000,-0.100000)"
fill="#000000" stroke="none">
<path d="M445 5106 c-37 -17 -80 -62 -94 -99 -6 -16 -11 -55 -11 -88 l0 -59
-73 0 c-88 0 -160 -31 -207 -88 -64 -78 -60 18 -58 -1587 3 -1421 4 -1461 22
-1499 25 -50 72 -97 122 -122 37 -18 72 -19 758 -24 l719 -5 47 -105 c148
-333 409 -603 735 -760 471 -227 1051 -194 1480 84 l70 45 70 -69 c67 -67 70
-72 71 -118 0 -31 8 -61 22 -83 11 -19 119 -132 240 -251 259 -258 283 -273
422 -273 72 0 93 4 141 27 70 35 132 97 167 168 23 47 27 68 27 140 0 139 -15
163 -273 422 -119 121 -232 229 -251 240 -22 14 -52 22 -83 22 -46 1 -51 4
-118 71 l-70 70 36 54 c93 138 183 362 221 548 25 125 25 442 0 568 -43 211
-142 445 -257 603 l-60 83 0 822 0 822 -24 50 c-24 52 -79 109 -125 127 -14 6
-62 14 -106 17 l-80 6 -5 70 c-6 87 -30 131 -90 162 l-44 23 -741 -2 -740 -3
-50 -23 c-27 -13 -67 -37 -88 -54 l-39 -30 -26 25 c-15 14 -52 38 -82 54 l-55
28 -745 2 c-609 2 -750 0 -775 -11z m1500 -175 c22 -10 48 -28 58 -39 46 -51
46 -51 47 -899 l0 -802 -33 -25 c-18 -14 -65 -62 -103 -107 -223 -261 -353
-574 -371 -891 l-6 -118 -514 0 -513 0 0 1450 0 1450 698 0 c655 0 699 -2 737
-19z m1805 -742 c0 -721 -1 -761 -17 -754 -260 113 -456 151 -723 142 -175 -6
-284 -24 -427 -72 -83 -28 -250 -106 -321 -150 l-42 -26 2 758 3 758 24 34
c13 18 42 42 65 52 39 18 80 19 739 19 l697 0 0 -761z m-3410 -834 c0 -1112 2
-1341 14 -1368 16 -39 61 -82 99 -96 19 -7 209 -11 561 -11 l533 0 6 -42 c3
-24 9 -62 13 -85 l7 -43 -672 0 -673 0 -29 29 -29 30 2 1441 3 1442 24 19 c17
14 39 19 82 19 l59 0 0 -1335z m3725 1310 l25 -24 0 -722 0 -722 -32 27 c-18
14 -56 43 -85 64 l-52 37 -1 683 0 682 60 0 c51 0 65 -4 85 -25z m-764 -1271
c285 -48 547 -189 756 -407 180 -189 294 -406 350 -667 26 -120 26 -420 0
-540 -55 -256 -172 -479 -347 -664 -199 -209 -433 -340 -722 -403 -117 -25
-419 -25 -535 0 -263 57 -482 171 -669 350 -221 210 -358 467 -409 761 -20
116 -19 336 1 457 71 421 354 801 739 991 112 55 250 101 370 122 111 20 349
20 466 0z m962 -2536 l-63 -63 -55 55 -55 54 62 63 63 63 55 -55 55 -55 -62
-62z m454 -210 c111 -112 207 -216 213 -233 30 -80 -1 -175 -70 -214 -46 -25
-118 -28 -163 -5 -35 18 -427 402 -427 419 0 13 222 235 235 235 6 0 101 -91
212 -202z"/>
<path d="M716 4588 c-40 -35 -43 -78 -11 -116 l27 -32 543 0 c525 0 543 1 567
20 14 11 28 31 30 44 7 36 -17 85 -47 96 -16 6 -229 10 -555 10 l-529 0 -25
-22z"/>
<path d="M730 4087 c-52 -26 -62 -95 -20 -137 19 -19 36 -20 568 -20 l549 0
20 23 c29 31 34 52 21 87 -21 61 -15 60 -590 60 -402 0 -529 -3 -548 -13z"/>
<path d="M734 3576 c-42 -19 -61 -65 -43 -107 24 -59 27 -59 581 -59 325 0
517 4 541 11 30 8 42 18 53 45 12 29 12 39 0 68 -11 27 -23 37 -53 45 -61 17
-1039 14 -1079 -3z"/>
<path d="M710 3050 c-27 -27 -34 -64 -18 -96 25 -54 29 -54 471 -52 l409 3 24
28 c31 37 31 81 -1 112 l-24 25 -421 0 c-405 0 -421 -1 -440 -20z"/>
<path d="M705 2528 c-32 -38 -29 -81 11 -115 25 -23 29 -23 300 -23 330 0 344
4 344 91 0 18 -10 39 -25 54 l-24 25 -290 0 -289 0 -27 -32z"/>
<path d="M2435 4598 c-51 -29 -61 -93 -20 -133 l24 -25 546 0 546 0 24 25 c35
34 33 78 -4 116 l-29 29 -534 0 c-382 -1 -539 -4 -553 -12z"/>
<path d="M2450 4093 c-61 -23 -79 -95 -35 -138 l24 -25 546 0 546 0 24 25 c32
31 32 75 1 112 l-24 28 -534 2 c-293 1 -540 -1 -548 -4z"/>
<path d="M2862 3225 c-390 -71 -729 -339 -885 -700 -64 -147 -88 -258 -94
-425 -10 -293 65 -539 232 -762 428 -569 1258 -643 1770 -157 258 245 387 564
372 918 -7 162 -25 251 -78 387 -60 153 -137 270 -259 395 -189 192 -391 299
-644 344 -107 18 -312 18 -414 0z m413 -174 c332 -69 608 -296 737 -606 76
-184 98 -403 58 -595 -82 -397 -370 -695 -770 -796 -114 -29 -366 -27 -475 4
-206 58 -341 136 -480 276 -209 211 -306 467 -292 770 13 269 109 481 307 676
142 141 307 230 500 271 116 24 298 24 415 0z"/>
<path d="M2911 2889 c-149 -29 -308 -109 -410 -206 -65 -62 -72 -82 -46 -132
28 -56 86 -56 150 -1 128 111 248 165 395 176 122 9 150 27 150 97 0 57 -32
77 -121 76 -41 -1 -94 -5 -118 -10z"/>
</g>
</svg>
